<svg viewBox="0 0 900 700" xmlns="http://www.w3.org/2000/svg">
  <defs>
    <linearGradient id="bg" x1="0" y1="0" x2="1" y2="1">
      <stop offset="0%" stop-color="#000a52"/>
      <stop offset="100%" stop-color="#00072e"/>
    </linearGradient>
    <pattern id="dots" width="28" height="28" patternUnits="userSpaceOnUse">
      <circle cx="2" cy="2" r="1.4" fill="#00e6e6" opacity="0.12"/>
    </pattern>
  </defs>
  <rect width="900" height="700" fill="url(#bg)"/>
  <rect width="900" height="700" fill="url(#dots)"/>
  <rect x="18" y="18" width="864" height="664" fill="none" stroke="#00e6e6" stroke-opacity="0.18" stroke-width="1.5"/>
  <g transform="translate(450.0,310.0)" stroke="#00e6e6" stroke-width="2.6" fill="none" stroke-linecap="round" stroke-linejoin="round">
    
<path d="M 30 -80 A 45 45 0 1 0 30 10 A 60 60 0 0 1 30 -80 Z"/>
<polyline points="-140,20 -140,70 -80,70 -80,20 -110,-15 -140,20"/>
<rect x="-125" y="35" width="14" height="14"/>
<rect x="-100" y="35" width="14" height="14"/>

  </g>
  <text x="48" y="64" font-family="IBM Plex Mono, monospace" font-size="15" letter-spacing="3" fill="#00e6e6" fill-opacity="0.75" font-weight="600">EXTERIORS</text>
  <line x1="48" y1="80" x2="90" y2="80" stroke="#00e6e6" stroke-width="1.5" opacity="0.6"/>
  <text x="48" y="644" font-family="Bricolage Grotesque, Inter, sans-serif" font-size="30" fill="#ffffff" font-weight="700">Villas at Night</text>
  <text x="48" y="674" font-family="IBM Plex Mono, monospace" font-size="12.5" letter-spacing="2" fill="#ffffff" fill-opacity="0.45">MIORAH BY SRIZEN &#8226; PLACEHOLDER — REPLACE WITH REAL PHOTOGRAPHY</text>
</svg>